<svg xmlns="http://www.w3.org/2000/svg" xmlns:xlink="http://www.w3.org/1999/xlink" width="250" zoomAndPan="magnify" viewBox="0 0 187.5 74.999997" height="100" preserveAspectRatio="xMidYMid meet" version="1.0"><defs><g/><clipPath id="6cb6ef7743"><path d="M 123 29 L 144.746094 29 L 144.746094 52 L 123 52 Z M 123 29 " clip-rule="nonzero"/></clipPath><clipPath id="05e64eb15b"><rect x="0" width="145" y="0" height="64"/></clipPath><clipPath id="fe08767f59"><path d="M 3.140625 11.78125 L 37.535156 11.78125 L 37.535156 58.15625 L 3.140625 58.15625 Z M 3.140625 11.78125 " clip-rule="nonzero"/></clipPath></defs><g transform="matrix(1, 0, 0, 1, 41, 3)"><g clip-path="url(#05e64eb15b)"><g fill="#000d4b" fill-opacity="1"><g transform="translate(0.279687, 50.789683)"><g><path d="M 12.578125 0.453125 C 10.679688 0.453125 8.925781 0.00390625 7.3125 -0.890625 C 5.707031 -1.796875 4.421875 -3.082031 3.453125 -4.75 C 2.492188 -6.414062 2.015625 -8.367188 2.015625 -10.609375 C 2.015625 -13.941406 2.945312 -16.609375 4.8125 -18.609375 C 6.6875 -20.617188 9.21875 -21.625 12.40625 -21.625 C 14.175781 -21.625 15.796875 -21.1875 17.265625 -20.3125 C 18.734375 -19.445312 19.726562 -18.398438 20.25 -17.171875 L 20.015625 -20.75 L 20.015625 -33.75 L 24.890625 -33.75 L 24.890625 0 L 20.15625 0 L 20.0625 -3.71875 C 19.539062 -2.613281 18.59375 -1.640625 17.21875 -0.796875 C 15.84375 0.0351562 14.296875 0.453125 12.578125 0.453125 Z M 13.40625 -3.71875 C 15.15625 -3.71875 16.625 -4.320312 17.8125 -5.53125 C 19.007812 -6.738281 19.609375 -8.320312 19.609375 -10.28125 L 19.609375 -10.609375 C 19.609375 -11.921875 19.332031 -13.097656 18.78125 -14.140625 C 18.226562 -15.179688 17.476562 -15.992188 16.53125 -16.578125 C 15.582031 -17.160156 14.539062 -17.453125 13.40625 -17.453125 C 11.445312 -17.453125 9.929688 -16.816406 8.859375 -15.546875 C 7.785156 -14.273438 7.25 -12.628906 7.25 -10.609375 C 7.25 -8.554688 7.773438 -6.894531 8.828125 -5.625 C 9.890625 -4.351562 11.414062 -3.71875 13.40625 -3.71875 Z M 13.40625 -3.71875 "/></g></g></g><g fill="#000d4b" fill-opacity="1"><g transform="translate(23.881287, 50.789683)"><g><path d="M 3.625 -21.078125 L 8.765625 -21.078125 L 8.765625 0 L 3.625 0 Z M 6.15625 -25.03125 C 5.207031 -25.03125 4.410156 -25.347656 3.765625 -25.984375 C 3.117188 -26.628906 2.796875 -27.425781 2.796875 -28.375 C 2.796875 -29.238281 3.117188 -29.972656 3.765625 -30.578125 C 4.410156 -31.191406 5.207031 -31.5 6.15625 -31.5 C 7.070312 -31.5 7.847656 -31.191406 8.484375 -30.578125 C 9.128906 -29.972656 9.453125 -29.238281 9.453125 -28.375 C 9.453125 -27.425781 9.140625 -26.628906 8.515625 -25.984375 C 7.890625 -25.347656 7.101562 -25.03125 6.15625 -25.03125 Z M 6.15625 -25.03125 "/></g></g></g><g fill="#000d4b" fill-opacity="1"><g transform="translate(31.687185, 50.789683)"><g><path d="M 12.578125 0.453125 C 10.679688 0.453125 8.925781 0.00390625 7.3125 -0.890625 C 5.707031 -1.796875 4.421875 -3.082031 3.453125 -4.75 C 2.492188 -6.414062 2.015625 -8.367188 2.015625 -10.609375 C 2.015625 -13.941406 2.945312 -16.609375 4.8125 -18.609375 C 6.6875 -20.617188 9.21875 -21.625 12.40625 -21.625 C 14.175781 -21.625 15.796875 -21.1875 17.265625 -20.3125 C 18.734375 -19.445312 19.726562 -18.398438 20.25 -17.171875 L 20.015625 -20.75 L 20.015625 -33.75 L 24.890625 -33.75 L 24.890625 0 L 20.15625 0 L 20.0625 -3.71875 C 19.539062 -2.613281 18.59375 -1.640625 17.21875 -0.796875 C 15.84375 0.0351562 14.296875 0.453125 12.578125 0.453125 Z M 13.40625 -3.71875 C 15.15625 -3.71875 16.625 -4.320312 17.8125 -5.53125 C 19.007812 -6.738281 19.609375 -8.320312 19.609375 -10.28125 L 19.609375 -10.609375 C 19.609375 -11.921875 19.332031 -13.097656 18.78125 -14.140625 C 18.226562 -15.179688 17.476562 -15.992188 16.53125 -16.578125 C 15.582031 -17.160156 14.539062 -17.453125 13.40625 -17.453125 C 11.445312 -17.453125 9.929688 -16.816406 8.859375 -15.546875 C 7.785156 -14.273438 7.25 -12.628906 7.25 -10.609375 C 7.25 -8.554688 7.773438 -6.894531 8.828125 -5.625 C 9.890625 -4.351562 11.414062 -3.71875 13.40625 -3.71875 Z M 13.40625 -3.71875 "/></g></g></g><g fill="#000d4b" fill-opacity="1"><g transform="translate(55.288784, 50.789683)"><g><path d="M 12.578125 0.453125 C 10.679688 0.453125 8.925781 0.00390625 7.3125 -0.890625 C 5.707031 -1.796875 4.421875 -3.082031 3.453125 -4.75 C 2.492188 -6.414062 2.015625 -8.367188 2.015625 -10.609375 C 2.015625 -12.816406 2.4375 -14.742188 3.28125 -16.390625 C 4.125 -18.046875 5.328125 -19.332031 6.890625 -20.25 C 8.453125 -21.164062 10.289062 -21.625 12.40625 -21.625 C 13.625 -21.625 14.769531 -21.410156 15.84375 -20.984375 C 16.914062 -20.554688 17.816406 -20.023438 18.546875 -19.390625 C 19.285156 -18.765625 19.773438 -18.148438 20.015625 -17.546875 L 20.109375 -21.078125 L 24.84375 -21.078125 L 24.84375 0 L 20.15625 0 L 20.0625 -3.71875 C 19.539062 -2.613281 18.59375 -1.640625 17.21875 -0.796875 C 15.84375 0.0351562 14.296875 0.453125 12.578125 0.453125 Z M 13.40625 -3.671875 C 15.15625 -3.671875 16.625 -4.273438 17.8125 -5.484375 C 19.007812 -6.691406 19.609375 -8.273438 19.609375 -10.234375 L 19.609375 -10.5625 C 19.609375 -11.875 19.332031 -13.050781 18.78125 -14.09375 C 18.226562 -15.132812 17.476562 -15.945312 16.53125 -16.53125 C 15.582031 -17.113281 14.539062 -17.40625 13.40625 -17.40625 C 11.445312 -17.40625 9.929688 -16.769531 8.859375 -15.5 C 7.785156 -14.226562 7.25 -12.582031 7.25 -10.5625 C 7.25 -8.507812 7.773438 -6.847656 8.828125 -5.578125 C 9.890625 -4.304688 11.414062 -3.671875 13.40625 -3.671875 Z M 13.40625 -3.671875 "/></g></g></g><g fill="#000d4b" fill-opacity="1"><g transform="translate(78.936301, 50.789683)"><g><path d="M 10.5625 0.453125 C 7.65625 0.453125 5.65625 -0.398438 4.5625 -2.109375 C 3.476562 -3.828125 2.9375 -6.21875 2.9375 -9.28125 L 2.9375 -21.078125 L 7.90625 -21.078125 L 7.90625 -10.515625 C 7.90625 -8.773438 8.003906 -7.421875 8.203125 -6.453125 C 8.398438 -5.484375 8.796875 -4.769531 9.390625 -4.3125 C 9.984375 -3.851562 10.878906 -3.625 12.078125 -3.625 C 12.929688 -3.625 13.753906 -3.867188 14.546875 -4.359375 C 15.347656 -4.847656 16 -5.515625 16.5 -6.359375 C 17.007812 -7.203125 17.265625 -8.128906 17.265625 -9.140625 L 17.265625 -21.078125 L 22.1875 -21.078125 L 22.1875 0 L 18.140625 0 L 17.59375 -3.078125 C 16.820312 -1.878906 15.863281 -0.988281 14.71875 -0.40625 C 13.570312 0.164062 12.1875 0.453125 10.5625 0.453125 Z M 10.5625 0.453125 "/></g></g></g><g fill="#000d4b" fill-opacity="1"><g transform="translate(99.874676, 50.789683)"><g><path d="M 3.265625 -21.078125 L 8.125 -21.078125 L 8.171875 -17.21875 C 8.753906 -18.507812 9.671875 -19.566406 10.921875 -20.390625 C 12.179688 -21.210938 13.65625 -21.625 15.34375 -21.625 C 17.507812 -21.625 19.175781 -21.171875 20.34375 -20.265625 C 21.507812 -19.367188 22.289062 -18.109375 22.6875 -16.484375 C 23.082031 -14.859375 23.28125 -12.75 23.28125 -10.15625 L 23.28125 0 L 18.328125 0 L 18.328125 -10.015625 C 18.328125 -12.671875 18.066406 -14.585938 17.546875 -15.765625 C 17.023438 -16.953125 15.953125 -17.546875 14.328125 -17.546875 C 13.410156 -17.546875 12.476562 -17.257812 11.53125 -16.6875 C 10.582031 -16.125 9.789062 -15.304688 9.15625 -14.234375 C 8.53125 -13.160156 8.21875 -11.90625 8.21875 -10.46875 L 8.21875 0 L 3.265625 0 Z M 3.265625 -21.078125 "/></g></g></g><g clip-path="url(#6cb6ef7743)"><g fill="#000d4b" fill-opacity="1"><g transform="translate(121.685479, 50.789683)"><g><path d="M 13.21875 0.453125 C 10.707031 0.453125 8.609375 -0.0390625 6.921875 -1.03125 C 5.242188 -2.03125 4.003906 -3.363281 3.203125 -5.03125 C 2.410156 -6.695312 2.015625 -8.523438 2.015625 -10.515625 C 2.015625 -12.753906 2.484375 -14.710938 3.421875 -16.390625 C 4.359375 -18.078125 5.648438 -19.367188 7.296875 -20.265625 C 8.953125 -21.171875 10.820312 -21.625 12.90625 -21.625 C 16.144531 -21.625 18.550781 -20.726562 20.125 -18.9375 C 21.707031 -17.144531 22.5 -14.628906 22.5 -11.390625 C 22.5 -10.566406 22.453125 -9.707031 22.359375 -8.8125 L 7.203125 -8.8125 C 7.546875 -6.945312 8.210938 -5.597656 9.203125 -4.765625 C 10.203125 -3.941406 11.585938 -3.53125 13.359375 -3.53125 C 14.828125 -3.53125 16.035156 -3.648438 16.984375 -3.890625 C 17.941406 -4.140625 18.816406 -4.476562 19.609375 -4.90625 L 21.125 -1.375 C 20.351562 -0.882812 19.3125 -0.457031 18 -0.09375 C 16.6875 0.269531 15.09375 0.453125 13.21875 0.453125 Z M 17.6875 -12.265625 C 17.707031 -14.160156 17.289062 -15.5 16.4375 -16.28125 C 15.582031 -17.0625 14.359375 -17.453125 12.765625 -17.453125 C 9.546875 -17.453125 7.691406 -15.722656 7.203125 -12.265625 Z M 17.6875 -12.265625 "/></g></g></g></g></g></g><g clip-path="url(#fe08767f59)"><path fill="#000d4b" d="M 20.4375 19.996094 C 21.636719 19.996094 22.734375 20.476562 23.527344 21.269531 C 24.316406 22.0625 24.808594 23.148438 24.808594 24.367188 C 24.808594 25.570312 24.316406 26.667969 23.527344 27.457031 C 22.734375 28.25 21.644531 28.742188 20.4375 28.742188 C 19.226562 28.742188 18.128906 28.25 17.335938 27.457031 C 16.554688 26.667969 16.0625 25.578125 16.0625 24.367188 C 16.0625 23.160156 16.554688 22.0625 17.335938 21.269531 C 18.136719 20.476562 19.226562 19.996094 20.4375 19.996094 Z M 20.4375 55.761719 L 33.4375 42.769531 C 34.898438 41.296875 35.632812 39.363281 35.632812 37.433594 C 35.632812 35.507812 34.90625 33.574219 33.4375 32.113281 C 32.8125 31.488281 32.097656 30.996094 31.34375 30.640625 C 31.101562 31.050781 30.839844 31.460938 30.550781 31.84375 C 29.054688 33.871094 26.949219 35.433594 24.511719 36.273438 L 21.328125 41.277344 C 21.011719 41.773438 20.363281 41.921875 19.867188 41.605469 C 19.730469 41.519531 19.617188 41.398438 19.535156 41.261719 L 16.351562 36.261719 C 13.914062 35.425781 11.816406 33.851562 10.308594 31.832031 C 10.023438 31.441406 9.761719 31.042969 9.527344 30.632812 C 8.765625 30.984375 8.066406 31.480469 7.433594 32.09375 C 5.972656 33.5625 5.238281 35.5 5.238281 37.425781 C 5.238281 39.351562 5.964844 41.289062 7.433594 42.757812 Z M 32.246094 28.707031 C 33.222656 29.160156 34.136719 29.792969 34.9375 30.59375 C 36.816406 32.476562 37.757812 34.949219 37.757812 37.425781 C 37.757812 39.902344 36.816406 42.386719 34.9375 44.257812 L 21.191406 58.003906 C 20.769531 58.421875 20.101562 58.421875 19.683594 58.003906 L 5.945312 44.257812 C 4.054688 42.386719 3.125 39.910156 3.125 37.425781 C 3.125 34.941406 4.054688 32.476562 5.945312 30.59375 C 7.824219 28.714844 10.300781 27.773438 12.777344 27.773438 C 15.242188 27.773438 17.726562 28.714844 19.609375 30.59375 L 20.4375 31.421875 L 21.265625 30.59375 C 23.144531 28.714844 25.621094 27.773438 28.09375 27.773438 C 28.496094 27.773438 28.894531 27.804688 29.285156 27.847656 C 29 28.566406 28.625 29.253906 28.171875 29.898438 C 28.140625 29.898438 28.113281 29.898438 28.085938 29.898438 C 26.152344 29.898438 24.222656 30.621094 22.753906 32.09375 L 21.179688 33.675781 C 20.761719 34.09375 20.09375 34.09375 19.671875 33.675781 L 18.089844 32.09375 C 16.628906 30.632812 14.695312 29.898438 12.765625 29.898438 C 12.375 29.898438 11.996094 29.925781 11.605469 29.980469 C 11.734375 30.175781 11.863281 30.378906 12.003906 30.558594 C 13.308594 32.324219 15.148438 33.667969 17.289062 34.34375 C 17.542969 34.410156 17.785156 34.570312 17.933594 34.800781 L 20.425781 38.730469 L 22.921875 34.800781 C 23.050781 34.597656 23.257812 34.4375 23.507812 34.355469 C 25.667969 33.695312 27.539062 32.335938 28.847656 30.558594 C 30.125 28.835938 30.886719 26.6875 30.886719 24.359375 C 30.886719 21.472656 29.714844 18.859375 27.824219 16.960938 C 25.9375 15.070312 23.320312 13.898438 20.425781 13.898438 C 17.53125 13.898438 14.925781 15.070312 13.027344 16.960938 C 11.128906 18.851562 9.964844 21.464844 9.964844 24.359375 C 9.964844 25.308594 10.097656 26.238281 10.328125 27.105469 C 9.632812 27.273438 8.960938 27.503906 8.320312 27.792969 C 8.011719 26.703125 7.84375 25.542969 7.84375 24.359375 C 7.84375 20.886719 9.25 17.742188 11.53125 15.460938 C 13.820312 13.191406 16.964844 11.785156 20.4375 11.785156 C 23.90625 11.785156 27.054688 13.191406 29.324219 15.472656 C 31.605469 17.75 33.007812 20.898438 33.007812 24.367188 C 33.019531 25.886719 32.738281 27.347656 32.246094 28.707031 Z M 22.027344 22.777344 C 21.617188 22.367188 21.050781 22.117188 20.4375 22.117188 C 19.8125 22.117188 19.246094 22.367188 18.84375 22.777344 C 18.433594 23.175781 18.183594 23.746094 18.183594 24.367188 C 18.183594 24.984375 18.425781 25.550781 18.84375 25.960938 C 19.246094 26.359375 19.8125 26.621094 20.4375 26.621094 C 21.050781 26.621094 21.617188 26.371094 22.027344 25.960938 C 22.429688 25.550781 22.6875 24.984375 22.6875 24.367188 C 22.6875 23.746094 22.4375 23.175781 22.027344 22.777344 Z M 22.027344 22.777344 " fill-opacity="1" fill-rule="nonzero"/></g></svg>